<?xml version="1.0" encoding="UTF-8" standalone="no"?>
<!-- Created with Inkscape (http://www.inkscape.org/) -->

<svg
   version="1.1"
   id="svg1"
   width="655.35999"
   height="655.35999"
   viewBox="0 0 655.35999 655.35999"
   xml:space="preserve"
   xmlns="http://www.w3.org/2000/svg"
   xmlns:svg="http://www.w3.org/2000/svg"><defs
     id="defs1" /><g
     id="g1"><g
       id="g262"
       transform="matrix(1.3674637,0,0,1.3388175,-120.13423,-111.88855)"><path
         style="fill:#dd9429"
         d="m 210.52078,523.46015 c -5.35269,-0.38964 -8.57333,-1.029 -13.74939,-2.72952 -5.36969,-1.76414 -9.78967,-3.89876 -14.29943,-6.9059 L 179,511.50961 175.47259,507.9748 c -7.16607,-7.18108 -11.03719,-13.90285 -13.61473,-23.64043 l -0.94614,-3.57437 -0.47586,-4.43418 c -0.60295,-5.61848 -0.60073,-9.43099 0.009,-15.51153 1.07857,-10.75512 3.40745,-18.66542 8.53441,-28.98812 8.15334,-16.41604 21.4954,-30.92135 40.26068,-43.77089 8.50964,-5.82697 21.53207,-13.25417 28.48,-16.24325 1.32,-0.56788 3.624,-1.57843 5.12,-2.24566 6.10142,-2.72131 10.74063,-4.56265 16.0271,-6.36129 3.06509,-1.04285 6.3649,-2.18309 7.3329,-2.53387 2.02316,-0.73313 14.52079,-4.74505 18.56,-5.95803 3.26923,-0.98174 10.24868,-2.78438 36,-9.29798 20.31228,-5.13783 30.90856,-8.08582 37.8403,-10.52752 12.42915,-4.37816 17.68163,-6.41262 21.9997,-8.5212 2.64,-1.28915 7.54513,-3.66838 10.9003,-5.28718 3.35517,-1.61879 6.95517,-3.49344 8,-4.1659 1.04483,-0.67245 4.84074,-3.00545 8.43534,-5.18445 3.5946,-2.179 8.3466,-5.27898 10.56,-6.88885 13.6588,-9.93444 14.2605,-10.41263 23.8069,-18.92025 l 5.70255,-5.08203 0.69745,0.33196 c 0.3836,0.18258 4.65746,3.8038 9.49746,8.04715 4.84,4.24335 10.564,9.24197 12.72,11.10805 2.156,1.86607 3.91612,3.55535 3.91139,3.75394 -0.0312,1.30753 -12.56323,12.46015 -24.13172,21.47548 -17.81562,13.88373 -33.76777,23.54747 -52.01967,31.51331 -2.904,1.26742 -5.45374,2.47267 -5.6661,2.67834 l -0.38609,0.37395 -0.35502,8.16 c -0.82824,19.03706 -0.27973,34.51566 1.90508,53.76 1.8964,16.70387 5.76964,33.2082 9.66036,41.16391 4.25205,8.69455 10.08845,16.30018 15.41062,20.08216 3.76795,2.67754 8.90013,4.51069 13.6852,4.88817 l 2.41406,0.19044 2.59151,-0.5251 c 9.33132,-1.89077 14.21056,-7.63916 16.56037,-19.51033 l 0.76986,-3.88925 0.54313,-8 0.54314,-8 0.0419,-19.84 c 0.0231,-10.912 0.003,-32.224 -0.045,-47.36 -0.0478,-15.136 -0.0126,-28.168 0.0784,-28.96 1.26006,-10.97267 1.56991,-12.59643 3.40004,-17.81761 1.94119,-5.538 3.21242,-7.15807 11.00851,-14.0293 2.64,-2.32682 6.2261,-5.54514 7.96911,-7.15183 1.74301,-1.60669 3.31403,-2.92126 3.49115,-2.92126 0.17712,0 2.27902,1.27428 4.67089,2.83173 5.23955,3.41171 8.96738,5.56819 10.90885,6.31055 0.792,0.30283 1.64296,0.73782 1.89104,0.96663 l 0.45104,0.41603 -1.16437,1.69753 c -2.07527,3.02553 -3.38096,8.1399 -4.10968,16.09753 l -0.41025,4.48 0.12188,35.36 c 0.18253,52.9543 0.17889,60.05452 -0.0384,75.04 l -0.19955,13.76 -0.36334,2.88 c -0.5152,4.08375 -2.11282,11.15888 -3.53803,15.66829 l -1.21733,3.85171 -1.84744,3.52 c -6.86335,13.07705 -15.78954,21.50217 -27.49554,25.95208 -6.61046,2.51289 -10.66767,3.51891 -16,3.96735 l -3.2,0.26911 -5.69611,-0.29304 -5.6961,-0.29303 -4.7039,-0.94785 c -7.92034,-1.59598 -10.34989,-2.17879 -13.32392,-3.19621 -3.27005,-1.11868 -3.61999,-1.1732 -3.03925,-0.47345 0.63619,0.76656 3.17759,1.96214 6.76153,3.18089 1.77538,0.60374 3.31567,1.19378 3.42286,1.31122 0.42697,0.46778 -2.21049,-0.19259 -4.92884,-1.23409 -1.58195,-0.6061 -3.9797,-1.49474 -5.32832,-1.97476 -1.34863,-0.48003 -4.54832,-2.05075 -7.11043,-3.4905 L 396.4591,513.4 l -3.28958,-2.62631 c -6.78551,-5.41735 -11.14491,-10.30862 -17.14128,-19.23262 l -3.32015,-4.94115 -2.83312,-5.79996 c -3.41065,-6.98229 -5.46572,-12.08645 -7.61767,-18.91996 -2.34233,-7.43805 -2.75288,-9.06806 -4.51354,-17.92 -2.34665,-11.79801 -3.21303,-17.45876 -4.16297,-27.2 -1.30785,-13.41129 -1.98349,-26.30985 -1.83543,-35.04 0.0612,-3.608 -0.006,-6.79516 -0.14831,-7.08259 l -0.25957,-0.52258 -4.88877,1.25604 c -10.86138,2.79056 -12.92094,3.2916 -21.52876,5.2374 -11.68373,2.64111 -24.81147,5.81653 -25.05553,6.06059 -0.106,0.106 -0.37279,3.5571 -0.59287,7.66911 -0.37806,7.06374 -0.76476,11.88002 -1.85166,23.06203 -1.0468,10.76945 -4.02645,27.79667 -6.38376,36.48 -3.49446,12.87213 -6.35716,20.66773 -10.6347,28.96 -8.24687,15.9871 -18.15701,26.48519 -31.80148,33.6882 -5.60601,2.95946 -12.02413,5.11954 -18.78107,6.32097 l -3.77893,0.67191 -5.76,0.1151 c -3.168,0.0633 -7.55965,-0.0159 -9.75922,-0.17603 z m 194.24019,-8.02609 c -0.43947,-0.36555 -1.66347,-1.09984 -2.72,-1.63175 -1.05653,-0.53191 -2.32802,-1.30803 -2.82552,-1.72471 -0.8978,-0.75194 -1.69985,-1.02722 -1.35172,-0.46393 0.49793,0.80566 6.74507,4.52974 7.53627,4.49255 0.088,-0.004 -0.19956,-0.3066 -0.63903,-0.67216 z m -8.66764,-6.76461 c -0.0733,-0.0498 -0.42133,-0.30181 -0.77333,-0.56 l -0.64,-0.46945 0.43918,0.56 c 0.24155,0.308 0.58955,0.56 0.77333,0.56 0.18379,0 0.27416,-0.0408 0.20082,-0.0906 z M 222.52,489.55754 c 2.97229,-0.7736 6.38983,-2.00804 8.57117,-3.09598 l 1.53118,-0.76367 3.12702,-3.10895 3.12702,-3.10894 1.86106,-2.81425 c 7.20509,-10.89534 12.62395,-28.28484 15.68962,-50.34915 1.30412,-9.38599 2.71677,-25.19943 2.28932,-25.62688 -0.70493,-0.70493 -14.02131,5.7717 -20.83639,10.1341 -12.27392,7.85667 -16.83281,11.31517 -23.62089,17.91953 l -4.10089,3.98989 -2.81409,3.69338 c -1.54774,2.03136 -3.53014,4.79078 -4.40532,6.13205 -3.14366,4.81783 -6.10597,11.91784 -7.19355,17.24133 l -0.62106,3.04 -0.003,4.16 -0.003,4.16 0.82388,3.2 c 1.40734,5.46619 3.16432,8.33027 6.84357,11.15581 2.43243,1.86802 4.89927,3.19615 7.41385,3.99156 2.96058,0.93648 3.33475,0.98341 6.72,0.84276 l 3.04,-0.12629 z M 158.97927,431.464 c -0.0114,-0.1672 0.0246,-9.952 0.08,-21.744 0.0554,-11.792 0.0823,-33.968 0.0598,-49.28 l -0.0409,-27.84 -0.37099,-3.84 c -0.56283,-5.82571 -1.79027,-10.1726 -3.58361,-12.69111 l -0.69993,-0.98296 -1.63184,-0.75984 -1.63184,-0.75984 -1.60312,-0.003 -1.60313,-0.003 -4.15687,1.14363 c -2.28628,0.62899 -5.74088,1.52523 -7.67688,1.99165 l -3.52,0.84802 -5.76,-0.003 -5.76,-0.003 -2.21568,-0.40745 c -1.21863,-0.2241 -3.54396,-0.83294 -5.1674,-1.35298 l -2.95171,-0.94551 -1.8726,-1.41213 c -5.76191,-4.34505 -8.68762,-7.12064 -10.307614,-9.77871 -0.858918,-1.4093 -0.865339,-2.12096 -0.0232,-2.57166 l 0.661787,-0.35418 -0.501787,-0.76582 c -0.646279,-0.98635 -0.633033,-1.52044 0.05821,-2.34729 l 0.56,-0.66985 2.080004,-0.17282 c 1.144,-0.0951 3.44799,-0.46363 5.11999,-0.81905 l 3.04,-0.64623 4.7036,-1.89309 4.7036,-1.89309 5.16082,-2.90162 c 9.24408,-5.1974 11.55827,-6.93446 28.01861,-21.03107 6.08071,-5.20751 12.58727,-10.90132 16.01466,-14.01423 1.74402,-1.584 5.38963,-4.824 8.10134,-7.2 2.71172,-2.376 6.9284,-6.12 9.3704,-8.32 2.44201,-2.2 5.98058,-5.32679 7.86349,-6.94844 l 3.42348,-2.94843 0.21441,-1.21157 c 0.11793,-0.66635 0.21722,-14.74756 0.22066,-31.29156 l 0.006,-30.08 0.32803,-1.87358 c 0.38123,-2.17749 0.64902,-2.5676 2.40924,-3.5098 L 201.4,159.48 h 16.53633 16.53633 l 0.90367,0.66878 c 0.49702,0.36783 1.11821,1.08783 1.38042,1.6 l 0.47674,0.93122 -0.0844,14.64 -0.0844,14.64 h 0.34751 c 0.19113,0 2.64795,-2.052 5.45961,-4.56 2.81167,-2.508 7.1837,-6.36 9.71564,-8.56 5.2026,-4.52053 7.14904,-6.22935 21.10389,-18.52746 13.94127,-12.28614 20.58878,-17.77099 24.66858,-20.35401 1.936,-1.22573 4.0193,-2.56243 4.62955,-2.97045 1.87824,-1.25582 5.44019,-2.88256 9.24995,-4.22446 l 3.6395,-1.28193 3.75605,-0.64084 c 5.90114,-1.00683 10.45543,-0.82575 17.76495,0.70637 l 3.2,0.67074 3.70578,1.5042 c 6.99048,2.83749 12.29077,6.01248 17.89422,10.71906 1.496,1.25656 3.872,3.19151 5.28,4.2999 2.56612,2.02006 12.18707,10.56341 19.68,17.47572 2.2,2.02953 5.7517,5.20411 7.89268,7.05462 2.14097,1.85052 3.97766,3.58604 4.08152,3.85671 l 0.18885,0.49213 -4.09932,5.64985 c -2.25463,3.10742 -4.68172,6.58585 -5.39353,7.72985 -2.5867,4.15724 -6.13636,10.16044 -8.08891,13.68 -1.09845,1.98 -2.14863,3.6 -2.33375,3.6 -0.35269,0 -2.41681,-1.73998 -7.77741,-6.55614 -9.11245,-8.18693 -16.93612,-14.48098 -22.76357,-18.313 l -3.70071,-2.43352 -3.88292,-1.74175 c -4.55993,-2.04543 -8.896,-3.2402 -12.68293,-3.49469 l -2.72,-0.18279 -3.43461,0.53984 c -6.15842,0.96796 -11.58484,2.90609 -17.36539,6.20232 -5.39639,3.07718 -16.01742,11.69252 -30.81965,24.99962 -9.25727,8.32223 -17.42103,15.49048 -21.98035,19.3 -1.584,1.32351 -4.98112,4.25897 -7.54917,6.52324 -2.56804,2.26428 -6.08329,5.34087 -7.81167,6.83687 -1.72838,1.496 -4.16954,3.656 -5.4248,4.8 -1.25525,1.144 -3.86,3.44195 -5.78832,5.10655 -1.92832,1.66461 -4.94817,4.32861 -6.71078,5.92 -1.7626,1.5914 -4.48777,3.97345 -6.05592,5.29345 -1.56816,1.32 -3.85517,3.264 -5.08225,4.32 -1.22708,1.056 -3.2334,2.75015 -4.45848,3.76478 -1.22508,1.01462 -3.90394,3.3376 -5.95301,5.16216 -2.04908,1.82456 -4.5896,4.00974 -5.6456,4.85596 -3.84514,3.08127 -11.04,9.61389 -11.04,10.02385 0,0.13779 0.35684,0.41311 0.79298,0.61183 0.43614,0.19871 1.91214,1.4316 3.28,2.73974 l 2.48702,2.37845 1.53681,2.54677 c 7.50199,12.43215 9.59158,30.38347 8.70111,74.74952 l -0.25597,12.75306 -5.47097,4.56365 -5.47098,4.56365 -4.59223,4.76329 c -9.9007,10.26948 -16.6739,19.87541 -21.04026,29.83985 -0.56795,1.29612 -1.18898,2.51292 -1.38007,2.704 L 159,431.768 Z m 101.69228,-78.76219 c -0.0842,-0.14399 -0.24923,-5.01381 -0.36662,-10.82181 -0.32426,-16.04295 -1.40075,-33.75372 -2.76192,-45.44 -2.79849,-24.02639 -6.44413,-38.75909 -11.25622,-45.48844 l -0.94995,-1.32844 0.21281,-0.67051 c 0.2806,-0.88408 2.49148,-2.14289 4.49035,-2.55667 0.88,-0.18217 2.824,-0.6297 4.32,-0.99451 l 2.72,-0.66328 3.84,0.19365 c 4.64352,0.23418 6.83219,0.75523 10.12351,2.41008 1.37626,0.69197 2.60442,1.25812 2.72926,1.25812 0.12483,0 -0.19597,-0.44946 -0.7129,-0.9988 l -0.93987,-0.9988 1.12,0.5638 c 2.29957,1.15759 4.10574,2.60182 7.96162,6.3662 l 3.96161,3.8676 -0.21438,-0.90659 c -0.11791,-0.49862 -0.58541,-1.50662 -1.03888,-2.24 l -0.8245,-1.33341 1.67656,1.6 c 3.27829,3.1286 6.57185,9.51348 8.74909,16.96095 3.34233,11.4328 5.84554,34.05927 6.6024,59.67905 l 0.28834,9.76 -0.25569,0.25875 c -0.14062,0.14232 -2.97604,0.95277 -6.30092,1.80101 -7.77018,1.98232 -28.5166,8.2254 -32.49288,9.77787 -0.2902,0.1133 -0.59657,0.0882 -0.68082,-0.0558 z M 355.97119,323.72 c 0.11547,-1.276 0.41477,-3.688 0.66511,-5.36 0.25033,-1.672 0.94945,-6.352 1.55358,-10.4 4.07191,-27.28379 10.31568,-51.19684 18.88598,-72.3315 9.43994,-23.27921 20.52294,-42.15724 36.43944,-62.0685 3.47502,-4.34718 13.75387,-14.33381 18.4083,-17.88496 3.74098,-2.85422 5.86017,-4.30166 6.55241,-4.4754 0.3985,-0.10002 2.94743,-1.67522 5.66427,-3.50044 2.71684,-1.82522 6.01258,-3.92627 7.32385,-4.669 5.41367,-3.06639 13.79729,-6.14506 23.30213,-8.5571 l 5.67374,-1.43982 5.68457,-0.18265 5.68457,-0.18266 3.43543,0.39401 c 6.67083,0.76507 11.32737,2.07943 16.55543,4.67295 l 3.52,1.74619 3.36,2.50334 c 4.61866,3.44111 7.19414,6.05473 9.6723,9.81554 4.12821,6.26491 6.09815,10.8111 7.93023,18.30124 l 0.98815,4.0399 0.36498,5.17231 0.36498,5.17231 -0.36818,5.09712 c -0.48009,6.64631 -1.26099,11.09737 -3.58905,20.45712 l -1.91025,7.68 -1.73986,4.53138 c -3.03836,7.91327 -9.58492,21.81666 -12.18051,25.86862 -0.67644,1.056 -2.15211,3.47262 -3.27924,5.37027 -2.59491,4.36878 -4.84213,7.59008 -5.46045,7.82736 -0.26405,0.10132 -0.66141,0.0533 -0.88302,-0.1067 -0.51138,-0.36923 -6.28118,-5.36335 -9.43008,-8.16233 -1.32,-1.17331 -5.316,-4.67418 -8.88,-7.77971 -3.564,-3.10553 -6.47905,-5.82248 -6.47789,-6.03766 10e-4,-0.21517 0.29461,-0.82323 0.65213,-1.35123 2.21725,-3.27458 7.43262,-12.43497 9.2657,-16.27447 3.61918,-7.58058 6.80669,-16.17932 7.79506,-21.02821 1.21428,-5.95724 1.4773,-12.56153 0.65914,-16.55081 -1.02334,-4.98971 -2.85787,-8.50021 -6.17536,-11.81696 l -1.99089,-1.99045 -2.30395,-1.12994 c -10.99752,-5.39356 -28.62756,1.50472 -43.3835,16.97508 l -3.63955,3.81576 -3.5979,4.96 c -6.49244,8.95034 -12.33546,18.27448 -15.83201,25.2643 -5.48537,10.96557 -10.59131,23.29484 -14.12298,34.10263 -5.18416,15.86477 -7.24741,23.75806 -10.40046,39.78848 -1.3376,6.80052 -2.55528,12.5955 -2.70594,12.87771 -0.30683,0.57473 -7.90826,4.77606 -16.1416,8.9215 -6.80988,3.42874 -23.87603,10.24538 -25.65035,10.24538 h -0.4684 z M 525.24,317.82996 c -13.70969,-1.63008 -22.68924,-5.05261 -33.97822,-12.95069 -3.59853,-2.51763 -15.3266,-11.91013 -20.77683,-16.63926 -2.30727,-2.002 -6.622,-5.72801 -9.58829,-8.28001 -2.96629,-2.552 -6.40652,-5.54082 -7.64496,-6.64183 -3.44143,-3.05955 -13.00646,-11.35434 -14.12169,-12.24634 -0.54449,-0.43551 -3.4699,-2.95183 -6.50092,-5.59183 -3.03101,-2.64 -6.25752,-5.42884 -7.17001,-6.19743 -0.9125,-0.76858 -1.76684,-1.58335 -1.89853,-1.8106 l -0.23945,-0.41318 1.1434,-3.30939 c 2.47894,-7.1749 10.31996,-23.33749 13.67565,-28.1894 l 1.27258,-1.84 0.51363,0.0112 c 0.50886,0.0111 3.34456,2.44099 22.79338,19.53178 5.52214,4.85262 11.77878,10.32462 13.90363,12.16 7.62582,6.58692 20.57666,17.91663 27.01663,23.63479 10.43396,9.2645 20.00982,16.40154 26.88,20.0341 2.376,1.25629 5.616,3.01779 7.2,3.91443 l 2.88,1.63027 3.79454,0.98173 3.79455,0.98173 h 2.79649 2.79649 l 0.71855,0.6232 c 0.3952,0.34275 0.88118,0.6774 1.07994,0.74366 l 0.3614,0.12046 -0.37605,1.22528 -0.37605,1.22528 0.3228,0.60315 c 0.46217,0.86358 0.16904,1.49801 -1.52626,3.30326 l -1.49852,1.59571 0.076,0.55895 0.076,0.55894 -1.3628,1.6162 c -1.69526,2.01048 -3.69845,3.46323 -7.26618,5.26956 -3.3153,1.67853 -6.16295,2.49147 -11.73089,3.34893 -4.02467,0.6198 -4.99749,0.68024 -7.04,0.43738 z"
         id="path263" /><path
         style="fill:#25323f"
         d="m 211.16,523.10577 c -2.92114,-0.41463 -7.18879,-1.91858 -11.68,-4.11611 -6.77765,-3.31627 -10.68322,-6.27117 -14.30843,-10.82552 l -1.87523,-2.35585 -1.57763,-3.24415 c -1.97032,-4.05164 -3.28563,-8.06828 -3.99644,-12.20414 l -0.54997,-3.2 -0.0215,-4.16 -0.0215,-4.16 0.54245,-3.2 c 0.53358,-3.14769 2.4076,-9.34936 3.96461,-13.12 4.46756,-10.81918 12.92009,-22.50846 22.16372,-30.65095 8.74439,-7.70271 18.52756,-14.23388 30.88,-20.61525 5.15978,-2.66558 7.35015,-3.68787 6.88,-3.21103 -0.088,0.0893 -1.744,1.20565 -3.68,2.48088 -13.4672,8.87076 -17.96223,12.33324 -24.48975,18.86427 l -4.32976,4.33208 -2.87024,3.92707 c -1.57864,2.15989 -3.50631,4.96789 -4.28372,6.24 -2.63836,4.31726 -5.22716,10.85466 -6.34057,16.0116 L 195,462.52 l 0.0231,4.48 0.0231,4.48 0.70096,2.82971 c 0.38552,1.55635 1.17927,3.86035 1.76387,5.12 l 1.06293,2.29029 1.88427,1.87645 c 4.01902,4.00233 8.62187,6.35737 13.82356,7.07278 l 1.62201,0.22309 2.50812,-0.36939 c 3.43693,-0.50619 5.81294,-1.12422 9.38811,-2.44195 3.84529,-1.4173 4.83557,-2.07516 8.27789,-5.49913 l 2.79675,-2.78185 1.86214,-2.84313 c 9.0978,-13.8906 15.2212,-37.14898 17.61769,-66.91687 0.28338,-3.52 0.61655,-7.192 0.74038,-8.16 l 0.22515,-1.76 2.19687,-1.05743 c 6.66288,-3.20707 30.76823,-11.16487 36.63468,-12.09405 l 1.39154,-0.22041 -0.21138,4.28595 c -0.29783,6.03858 -1.0952,16.92987 -1.46174,19.96594 -0.16999,1.408 -0.45087,4.29489 -0.62418,6.41531 -0.47581,5.82148 -2.46485,18.84864 -4.00511,26.2313 -4.76071,22.81867 -11.52292,39.46507 -21.46165,52.83171 l -2.82673,3.80168 -4.01615,4.02807 c -10.12349,10.15356 -21.97579,16.2224 -36.17615,18.52359 l -4,0.64821 -5.76,-0.0394 c -3.168,-0.0217 -6.696,-0.17229 -7.84,-0.33467 z M 430.68,522.677 c -5.06825,-0.60058 -15.06728,-2.79115 -19.2,-4.2063 -2.83825,-0.97189 -4.03966,-1.56124 -6.58465,-3.23008 -1.04245,-0.68357 -2.35294,-1.42651 -2.91222,-1.65098 -0.55927,-0.22447 -1.27893,-0.69771 -1.59924,-1.05165 -0.32031,-0.35393 -0.9921,-0.85539 -1.49287,-1.11435 -0.50078,-0.25896 -0.83443,-0.54691 -0.74145,-0.63988 0.093,-0.093 0.49839,0.0616 0.90094,0.3436 1.05454,0.73863 1.53862,0.61857 0.58949,-0.1462 -1.95776,-1.57748 -6.7703,-4.83753 -6.9201,-4.68773 -0.091,0.091 0.67458,0.86441 1.7012,1.71877 l 1.86659,1.55339 -0.10076,0.52319 -0.10076,0.5232 2.65691,1.91375 c 1.46131,1.05257 3.80892,2.50514 5.21692,3.22795 2.42121,1.24294 5.48662,3.56632 4.70532,3.56632 -1.70595,0 -10.10539,-4.59709 -14.36879,-7.86416 -7.3965,-5.66798 -12.17545,-10.94239 -18.61245,-20.54209 -6.12259,-9.13082 -11.90462,-22.77357 -15.54793,-36.68547 -1.03122,-3.93771 -3.43208,-15.4971 -4.02689,-19.38828 -1.56539,-10.24049 -1.96145,-13.29522 -2.53082,-19.52 -1.06686,-11.66377 -1.31605,-16.44683 -1.5188,-29.15257 l -0.192,-12.03258 0.35568,-0.21982 c 0.19563,-0.12091 2.84441,-0.94029 5.88618,-1.82085 7.88313,-2.28209 11.63965,-3.52373 19.27947,-6.37246 7.26908,-2.71048 11.8004,-4.51089 13.28378,-5.27797 0.51451,-0.26606 1.10843,-0.48375 1.31983,-0.48375 h 0.38436 l -0.28847,7.6 c -0.15866,4.18 -0.27598,12.64 -0.26071,18.8 l 0.0277,11.2 0.70689,9.44 c 0.38878,5.192 0.76871,9.656 0.84428,9.92 0.0756,0.264 0.42425,3.072 0.77484,6.24 1.3993,12.64429 4.42426,26.46005 8.48431,38.75005 l 2.33562,7.07006 1.9017,3.96994 c 2.25434,4.70609 4.64585,8.70672 8.20756,13.72995 l 2.60929,3.68 3.84,3.85066 3.84,3.85065 3.68,2.4302 c 5.84524,3.86007 10.2579,5.80192 15.85825,6.97865 l 3.18175,0.66854 4.67058,0.19733 4.67059,0.19733 3.16941,-0.56533 c 10.82337,-1.93058 20.39903,-7.65729 26.10511,-15.61213 0.72753,-1.01425 1.37385,-1.79303 1.43626,-1.73062 0.2238,0.2238 -2.41084,5.54759 -4.06529,8.21472 -3.50422,5.64909 -11.36502,13.67591 -15.34666,15.67076 -0.792,0.3968 -1.744,0.99952 -2.11556,1.33938 -0.98,0.89637 -5.55532,2.82138 -6.71669,2.82595 -1.3555,0.005 -3.00775,0.61788 -3.00775,1.11508 v 0.40857 l -2.16,0.69154 c -1.188,0.38035 -3.528,0.98391 -5.2,1.34126 l -3.04,0.64973 -6.08,0.1154 -6.08,0.1154 z m 19.72561,-21.94747 c -6.80301,-0.71791 -14.91086,-3.7891 -20.84561,-7.89616 -4.7611,-3.29485 -10.00928,-8.07337 -8.86686,-8.07337 0.1632,0 1.38723,0.50384 2.72007,1.11965 1.33284,0.61581 3.62112,1.4068 5.08506,1.75776 l 2.66173,0.6381 2.99381,0.002 2.99381,0.002 1.96619,-0.50593 c 6.06133,-1.55968 10.75927,-5.52407 13.05203,-11.01407 2.06823,-4.95236 2.90458,-9.04258 3.72473,-18.21613 l 0.5314,-5.94387 0.028,-50.24 0.028,-50.24 0.39197,-3.02901 c 1.03573,-8.00373 1.56516,-10.4541 3.28669,-15.2118 1.74295,-4.81687 4.07031,-7.62686 11.82993,-14.28317 1.5106,-1.29581 4.4371,-3.90603 6.50335,-5.80048 l 3.75681,-3.44445 0.37665,0.23023 c 0.20716,0.12662 2.17847,1.40823 4.38068,2.84802 4.53103,2.96234 9.81072,5.95201 11.59598,6.56631 l 1.2,0.41292 v 0.43707 c 0,0.24038 -0.343,0.89545 -0.76223,1.45571 -1.7852,2.38578 -2.98036,6.35401 -3.95964,13.14706 L 494.52,339.32 v 53.6 c 0,29.48 -0.11812,55.472 -0.26247,57.76 -1.03464,16.39833 -5.40538,29.3252 -12.79916,37.85458 -5.36413,6.18801 -15.34614,11.18897 -24.37837,12.21349 -3.16817,0.35936 -3.09129,0.35958 -6.67439,-0.0185 z M 159.17498,409 c 0.33964,-26.81508 0.22209,-70.31193 -0.20949,-77.52 -0.35817,-5.98194 -1.16364,-10.38453 -2.40659,-13.1542 l -0.84969,-1.89335 -1.22137,-1.10344 -1.22138,-1.10344 -1.80021,-0.52334 -1.80021,-0.52333 -1.17302,0.20565 c -0.64516,0.11311 -2.94565,0.70722 -5.11221,1.32024 -5.23116,1.48014 -10.55319,2.61063 -13.50081,2.86781 -4.86578,0.42454 -13.21984,-0.69083 -17.38915,-2.32168 -1.83215,-0.71665 -4.05085,-2.26465 -4.05085,-2.82629 V 311.96 h -0.59011 c -0.79839,0 -5.4093,-3.74618 -7.17918,-5.83278 -0.787112,-0.92797 -1.729229,-2.27821 -2.093594,-3.00053 l -0.662483,-1.31332 0.366686,-0.36668 c 0.201677,-0.20168 0.553886,-0.36669 0.782686,-0.36669 0.543975,0 0.526407,-0.3717 -0.05382,-1.13884 -0.606518,-0.80189 -0.616395,-1.87804 -0.02176,-2.37154 0.257627,-0.21381 1.578715,-0.52659 2.935735,-0.69507 7.05002,-0.87526 13.67932,-3.29494 22.23485,-8.11567 7.89897,-4.45079 10.81365,-6.49805 18.65695,-13.10463 2.09878,-1.76784 5.20096,-4.36625 6.89374,-5.77425 3.71143,-3.08705 11.12407,-9.5833 17.90457,-15.69112 2.74216,-2.47011 8.43753,-7.51011 12.65638,-11.2 4.21886,-3.68988 8.76587,-7.71688 10.10448,-8.94888 1.33862,-1.232 3.46683,-3.14913 4.72936,-4.2603 l 2.29552,-2.02029 0.0139,-29.4997 c 0.008,-16.22484 0.13691,-30.98405 0.28719,-32.79825 l 0.27324,-3.29855 0.59281,-0.66791 c 0.32605,-0.36735 1.17046,-0.92655 1.87648,-1.24266 l 1.28367,-0.57475 15.99633,-0.0988 15.99633,-0.0988 1.0244,0.43236 c 0.56342,0.2378 1.28342,0.8138 1.6,1.28 l 0.5756,0.84764 0.0923,14.87629 c 0.0508,8.18196 0.21031,14.99431 0.35456,15.13856 l 0.26228,0.26228 2.23684,-2.01856 c 5.21691,-4.70781 12.55832,-11.18253 14.42095,-12.71848 1.1038,-0.91021 2.9038,-2.49239 4,-3.51595 1.09619,-1.02357 3.80639,-3.42773 6.02265,-5.34258 2.21626,-1.91486 8.04826,-7.01141 12.96,-11.32568 14.92952,-13.11349 16.3795,-14.25507 25.57043,-20.13173 3.96739,-2.53674 10.03967,-4.87498 15.47015,-5.95705 l 3.95015,-0.7871 h 3.73825 c 9.50593,0 16.02935,1.73205 25.51428,6.77434 l 4.19283,2.22896 3.52832,2.77835 c 9.27198,7.30115 17.68602,14.50569 17.68602,15.1437 v 0.33787 l -1.04,-0.62813 c -0.572,-0.34547 -2.0319,-1.23737 -3.24423,-1.98199 -8.64368,-5.30904 -15.92669,-7.58579 -25.35927,-7.92759 l -4.5235,-0.16392 -2.1965,0.37782 c -7.97067,1.37104 -16.65605,6.08517 -24.55081,13.32536 l -4.11432,3.77318 -5.64568,6.5331 c -3.10513,3.59321 -6.58169,7.65005 -7.72569,9.0152 -12.6939,15.14778 -25.0527,28.08257 -34.72,36.33812 -1.232,1.05209 -3.896,3.36596 -5.92,5.14194 -2.024,1.77598 -4.69434,4.08059 -5.9341,5.12137 -3.35797,2.81902 -17.50418,15.18803 -20.6259,18.03466 -1.496,1.36417 -3.8,3.40058 -5.12,4.52536 -1.32,1.12478 -4.35204,3.77468 -6.73787,5.88868 -5.03069,4.45751 -7.70908,6.77286 -12.96029,11.20362 -2.08591,1.76 -5.09514,4.35265 -6.6872,5.76144 -3.68682,3.26242 -6.22781,5.42688 -8.68264,7.39599 -1.07139,0.85942 -3.91675,3.36257 -6.323,5.56257 l -4.375,4 0.85637,0.64 c 2.93666,2.1947 4.78707,3.9834 6.21877,6.01138 5.64522,7.99635 8.3897,18.81579 9.63627,37.98862 l 0.40571,6.24 -0.0637,22.20167 -0.0637,22.20167 -0.57189,0.64417 c -0.31454,0.35429 -2.6173,2.35615 -5.11725,4.44858 -8.81578,7.37869 -18.32391,17.70279 -23.67238,25.70391 -2.03621,3.04609 -7.06,12.18618 -7.95883,14.48 -0.2931,0.748 -0.68461,1.36 -0.87001,1.36 h -0.3371 z m 101.47835,-56.61333 c -0.11733,-0.11734 -0.21356,-3.32134 -0.21385,-7.12 -9.7e-4,-12.9429 -0.98957,-31.71593 -2.41958,-45.94667 -0.87757,-8.73325 -3.19237,-23.57654 -4.79076,-30.72 -1.50836,-6.74113 -4.20601,-13.87437 -6.51763,-17.2342 -0.54533,-0.79261 -0.99151,-1.73736 -0.99151,-2.09944 v -0.65833 l 1.22974,-0.7763 1.22974,-0.7763 4.0381,-0.98771 4.0381,-0.98772 3.61216,0.006 3.61216,0.006 2.24,0.46112 2.24,0.46112 3.52,1.77719 c 3.54228,1.78844 4.20383,2.03815 3.84,1.44946 -0.34011,-0.5503 0.3535,-0.35045 1.31685,0.37943 0.50773,0.38468 2.69655,2.43668 4.86403,4.56 2.16748,2.12331 4.02374,3.93257 4.12502,4.02057 0.17343,0.1507 0.0733,-0.36034 -0.43889,-2.24 l -0.21799,-0.8 0.56914,0.46711 c 1.56358,1.28327 4.78099,7.1758 6.76892,12.39695 1.02888,2.70227 2.52009,8.7336 3.30714,13.37594 2.39214,14.10987 4.74944,43.61027 4.44925,55.68 l -0.10347,4.16 -6.24,1.62391 c -7.16801,1.86543 -16.83872,4.70599 -26.1296,7.67503 -7.0926,2.26654 -6.63905,2.14574 -6.93707,1.84773 z m 95.35015,-26.61671 c -0.49712,-0.89086 3.67079,-27.52744 6.2417,-39.88996 8.54181,-41.07428 23.39925,-75.25333 45.46218,-104.58431 1.6117,-2.14263 4.36447,-5.66799 6.11727,-7.83414 l 3.18691,-3.93846 5.15423,-4.83367 c 6.77639,-6.35494 11.51848,-10.36002 13.36735,-11.28981 1.91219,-0.96164 2.63178,-1.40312 5.12091,-3.14179 11.30452,-7.89624 16.9461,-10.71086 27.94597,-13.94242 11.59321,-3.40587 17.42093,-4.07937 26.72,-3.08798 6.61291,0.70501 10.73843,1.85317 16.1507,4.49485 l 3.62302,1.76836 3.31314,2.45557 c 6.01969,4.46156 9.25566,8.22481 13.01339,15.1338 1.61129,2.96252 3.66754,8.64517 4.74493,13.11303 l 0.81191,3.36697 0.43984,4.8 0.43983,4.8 -0.31349,5.28 c -0.41151,6.93086 -1.19673,11.61458 -3.54075,21.12 l -1.93334,7.84 -1.77698,4.64 c -3.30127,8.62017 -10.26213,23.2582 -11.66282,24.52581 l -0.63565,0.57525 0.62948,-1.59053 c 0.34621,-0.87479 1.49471,-3.54355 2.55224,-5.93058 2.93706,-6.6295 5.09935,-12.97724 6.64244,-19.49995 l 1.40051,-5.92 0.68483,-6.08 0.68484,-6.08 -0.1587,-6.4 -0.15869,-6.4 -0.81398,-3.36 c -1.50038,-6.19338 -3.72638,-11.15906 -6.98424,-15.58017 -2.54214,-3.44984 -6.92735,-6.93851 -11.78603,-9.37642 -4.05872,-2.03651 -6.81908,-2.84864 -11.02166,-3.24266 l -3.49522,-0.32771 -3.07992,0.33506 c -5.54005,0.6027 -12.56727,3.00559 -19.04963,6.51386 -7.69058,4.16216 -10.60142,6.46094 -20.09937,15.87307 -7.06547,7.00162 -9.21556,9.465 -13.73204,15.73292 -6.05594,8.40436 -11.70536,17.47929 -15.10359,24.26164 -5.55952,11.09595 -10.70681,23.61576 -14.36797,34.94733 -5.08679,15.74402 -7.27644,24.02833 -9.80683,37.10308 -3.15602,16.30743 -2.72679,14.86717 -4.752,15.94536 -0.64801,0.345 -3.3382,1.80425 -5.9782,3.24279 -9.94977,5.42164 -17.45522,8.79539 -28.48,12.80195 -4.71801,1.71459 -5.55101,1.95646 -5.71652,1.65986 z"
         id="path262" /></g></g></svg>
